<svg width="49" height="53" viewBox="0 0 49 53" fill="none" xmlns="http://www.w3.org/2000/svg">
<path d="M19.8968 9.7502C19.1785 10.1649 18.9333 11.0805 19.3481 11.799C19.763 12.5176 20.6785 12.763 21.3968 12.3483L21.6547 12.7948C22.6484 14.516 24.2882 15.7723 26.2088 16.2872L30.5519 17.4549L29.3917 21.8C28.8773 23.7208 29.1453 25.769 30.139 27.4902L30.3968 27.9367C29.6785 28.3515 29.4333 29.267 29.8481 29.9856C30.263 30.7041 31.1785 30.9495 31.8968 30.5348L33.1955 29.785L43.5851 23.7866L44.8838 23.0368C45.6022 22.622 45.8474 21.7064 45.4325 20.9879C45.0177 20.2694 44.1022 20.0239 43.3838 20.4387L43.126 19.9921C42.1323 18.2709 40.4925 17.0147 38.5718 16.4998L34.2288 15.332L35.3931 10.9846C35.9075 9.06386 35.6395 7.01565 34.6457 5.29443L34.3879 4.84788C35.1062 4.43315 35.3514 3.51757 34.9366 2.79904C34.5218 2.08051 33.6062 1.83507 32.8879 2.2498L31.5851 3.00195L21.1955 9.00039L19.8968 9.7502ZM24.2521 11.2952L23.9942 10.8487L31.7864 6.34983L32.0443 6.79638C32.4896 7.56768 32.6935 8.44584 32.6371 9.32281L26.1436 13.0718C25.36 12.6799 24.6974 12.0665 24.2521 11.2952ZM32.1436 23.4641C32.1614 23.167 32.2106 22.8679 32.2854 22.5758L33.4521 18.2324L37.7991 19.3978C38.0936 19.4768 38.3732 19.586 38.6394 19.7192L32.1459 23.4682L32.1436 23.4641Z" fill="#C79D89"/>
<circle cx="15" cy="38" r="15" fill="#7ABB45"/>
<path d="M24.1406 38C24.1406 40.4242 23.1776 42.7492 21.4634 44.4634C19.7492 46.1776 17.4242 47.1406 15 47.1406C12.5758 47.1406 10.2508 46.1776 8.5366 44.4634C6.8224 42.7492 5.85938 40.4242 5.85938 38C5.85938 35.5758 6.8224 33.2508 8.5366 31.5366C10.2508 29.8224 12.5758 28.8594 15 28.8594C17.4242 28.8594 19.7492 29.8224 21.4634 31.5366C23.1776 33.2508 24.1406 35.5758 24.1406 38ZM3.75 38C3.75 40.9837 4.93526 43.8452 7.04505 45.955C9.15483 48.0647 12.0163 49.25 15 49.25C17.9837 49.25 20.8452 48.0647 22.955 45.955C25.0647 43.8452 26.25 40.9837 26.25 38C26.25 35.0163 25.0647 32.1548 22.955 30.045C20.8452 27.9353 17.9837 26.75 15 26.75C12.0163 26.75 9.15483 27.9353 7.04505 30.045C4.93526 32.1548 3.75 35.0163 3.75 38ZM13.9453 32.0234V38C13.9453 38.3516 14.1211 38.6812 14.4155 38.8789L18.6343 41.6914C19.1177 42.0166 19.7725 41.8848 20.0977 41.397C20.4229 40.9092 20.291 40.2588 19.8032 39.9336L16.0547 37.4375V32.0234C16.0547 31.439 15.5845 30.9688 15 30.9688C14.4155 30.9688 13.9453 31.439 13.9453 32.0234Z" fill="white"/>
</svg>
