<svg width="32" height="32" viewBox="0 0 32 32" fill="none" xmlns="http://www.w3.org/2000/svg">
<path d="M3.55556 5C1.59444 5 0 6.56953 0 8.5V12C0 12.4812 0.411111 12.8586 0.872222 13.0172C1.91667 13.3727 2.66667 14.3516 2.66667 15.5C2.66667 16.6484 1.91667 17.6273 0.872222 17.9828C0.411111 18.1414 0 18.5188 0 19V22.5C0 24.4305 1.59444 26 3.55556 26H28.4444C30.4056 26 32 24.4305 32 22.5V19C32 18.5188 31.5889 18.1414 31.1278 17.9828C30.0833 17.6273 29.3333 16.6484 29.3333 15.5C29.3333 14.3516 30.0833 13.3727 31.1278 13.0172C31.5889 12.8586 32 12.4812 32 12V8.5C32 6.56953 30.4056 5 28.4444 5H3.55556ZM7.11111 11.125V19.875C7.11111 20.3562 7.51111 20.75 8 20.75H24C24.4889 20.75 24.8889 20.3562 24.8889 19.875V11.125C24.8889 10.6438 24.4889 10.25 24 10.25H8C7.51111 10.25 7.11111 10.6438 7.11111 11.125ZM5.33333 10.25C5.33333 9.28203 6.12778 8.5 7.11111 8.5H24.8889C25.8722 8.5 26.6667 9.28203 26.6667 10.25V20.75C26.6667 21.718 25.8722 22.5 24.8889 22.5H7.11111C6.12778 22.5 5.33333 21.718 5.33333 20.75V10.25Z" fill="#FB6E3B"/>
</svg>
