<svg width="53" height="57" viewBox="0 0 53 57" fill="none" xmlns="http://www.w3.org/2000/svg">
<path d="M43.5 0C42.75 0 37.5 1.5 37.5 8.25V13.5C37.5 15.1547 38.8453 16.5 40.5 16.5H42V22.5C42 23.3297 42.6703 24 43.5 24C44.3297 24 45 23.3297 45 22.5V16.5V11.25V1.5C45 0.670312 44.3297 0 43.5 0ZM27 0.75C27 0.365625 26.7141 0.046875 26.3297 0.0046875C25.9453 -0.0375 25.6031 0.215625 25.5188 0.585938L24.0984 6.975C24.0328 7.27031 24 7.57031 24 7.87031C24 10.0219 25.6453 11.7891 27.75 11.9813V22.5C27.75 23.3297 28.4203 24 29.25 24C30.0797 24 30.75 23.3297 30.75 22.5V11.9813C32.8547 11.7891 34.5 10.0219 34.5 7.87031C34.5 7.57031 34.4672 7.27031 34.4016 6.975L32.9813 0.585938C32.8969 0.210938 32.5453 -0.0375 32.1656 0.0046875C31.7859 0.046875 31.5 0.365625 31.5 0.75V7.04062C31.5 7.29375 31.2937 7.5 31.0406 7.5C30.8016 7.5 30.6047 7.31719 30.5812 7.07812L29.9953 0.684375C29.9625 0.295313 29.6391 0 29.25 0C28.8609 0 28.5375 0.295313 28.5047 0.684375L27.9234 7.07812C27.9 7.31719 27.7031 7.5 27.4641 7.5C27.2109 7.5 27.0047 7.29375 27.0047 7.04062V0.75H27ZM29.2641 7.875H29.25H29.2359L29.25 7.84219L29.2641 7.875Z" fill="#CDCDD2"/>
<path d="M2.255 22.4286C1.45 22.4286 0.8 21.7902 0.8 20.9996C0.8 20.9062 0.81 20.8179 0.83 20.7246C1.095 19.6933 3.14 13 12 13C20.86 13 22.905 19.6933 23.17 20.7246C23.195 20.8179 23.2 20.9062 23.2 20.9996C23.2 21.7902 22.55 22.4286 21.745 22.4286H2.255ZM6.4 17.7143C6.4 17.5059 6.31571 17.3061 6.16569 17.1587C6.01566 17.0114 5.81217 16.9286 5.6 16.9286C5.38783 16.9286 5.18434 17.0114 5.03431 17.1587C4.88429 17.3061 4.8 17.5059 4.8 17.7143C4.8 17.9227 4.88429 18.1225 5.03431 18.2699C5.18434 18.4172 5.38783 18.5 5.6 18.5C5.81217 18.5 6.01566 18.4172 6.16569 18.2699C6.31571 18.1225 6.4 17.9227 6.4 17.7143ZM18.4 18.5C18.6122 18.5 18.8157 18.4172 18.9657 18.2699C19.1157 18.1225 19.2 17.9227 19.2 17.7143C19.2 17.5059 19.1157 17.3061 18.9657 17.1587C18.8157 17.0114 18.6122 16.9286 18.4 16.9286C18.1878 16.9286 17.9843 17.0114 17.8343 17.1587C17.6843 17.3061 17.6 17.5059 17.6 17.7143C17.6 17.9227 17.6843 18.1225 17.8343 18.2699C17.9843 18.4172 18.1878 18.5 18.4 18.5ZM12.8 16.1429C12.8 15.9345 12.7157 15.7346 12.5657 15.5873C12.4157 15.4399 12.2122 15.3571 12 15.3571C11.7878 15.3571 11.5843 15.4399 11.4343 15.5873C11.2843 15.7346 11.2 15.9345 11.2 16.1429C11.2 16.3512 11.2843 16.5511 11.4343 16.6984C11.5843 16.8458 11.7878 16.9286 12 16.9286C12.2122 16.9286 12.4157 16.8458 12.5657 16.6984C12.7157 16.5511 12.8 16.3512 12.8 16.1429ZM0 26.3571C0 25.0558 1.075 24 2.4 24H21.6C22.925 24 24 25.0558 24 26.3571C24 27.6585 22.925 28.7143 21.6 28.7143H2.4C1.075 28.7143 0 27.6585 0 26.3571ZM0.8 31.0714C0.8 30.6393 1.16 30.2857 1.6 30.2857H22.4C22.84 30.2857 23.2 30.6393 23.2 31.0714V31.8571C23.2 33.5906 21.765 35 20 35H4C2.235 35 0.8 33.5906 0.8 31.8571V31.0714Z" fill="#FDBC44"/>
<path d="M25.8 31.6C25.8 30.715 26.515 30 27.4 30H43.4H46.6C50.135 30 53 32.865 53 36.4C53 39.935 50.135 42.8 46.6 42.8H45C45 45.45 42.85 47.6 40.2 47.6H30.6C27.95 47.6 25.8 45.45 25.8 42.8V31.6ZM45 39.6H46.6C48.365 39.6 49.8 38.165 49.8 36.4C49.8 34.635 48.365 33.2 46.6 33.2H45V39.6ZM22.6 49.2H48.2C49.085 49.2 49.8 49.915 49.8 50.8C49.8 51.685 49.085 52.4 48.2 52.4H22.6C21.715 52.4 21 51.685 21 50.8C21 49.915 21.715 49.2 22.6 49.2Z" fill="#5CB4D0"/>
</svg>
