<svg width="16" height="16" viewBox="0 0 16 16" fill="none" xmlns="http://www.w3.org/2000/svg">
<path d="M8.87046 0.527285C8.70987 0.205055 8.37051 0 7.99782 0C7.62514 0 7.28881 0.205055 7.12519 0.527285L5.17691 4.40283L0.825864 5.02385C0.462267 5.07658 0.159269 5.32265 0.04716 5.65952C-0.0649493 5.9964 0.02595 6.36843 0.286528 6.61742L3.44377 9.63759L2.69839 13.9057C2.63779 14.2572 2.78929 14.6146 3.08926 14.8226C3.38923 15.0305 3.78615 15.0569 4.11339 14.8899L8.00085 12.8833L11.8883 14.8899C12.2156 15.0569 12.6125 15.0335 12.9124 14.8226C13.2124 14.6116 13.3639 14.2572 13.3033 13.9057L12.5549 9.63759L15.7121 6.61742C15.9727 6.36843 16.0667 5.9964 15.9515 5.65952C15.8364 5.32265 15.5364 5.07658 15.1728 5.02385L10.8187 4.40283L8.87046 0.527285Z" fill="#FDBC44"/>
</svg>
