<svg width="24" height="24" viewBox="0 0 24 24" fill="none" xmlns="http://www.w3.org/2000/svg">
<path d="M23.45 5.46016L20.9225 1.56289C20.6976 1.21484 20.2962 1 19.8683 1H4.12996C3.70209 1 3.30069 1.21484 3.07573 1.56289L0.543831 5.46016C-0.761818 7.47109 0.393858 10.2684 2.83313 10.5906C3.00957 10.6121 3.19042 10.625 3.36686 10.625C4.51812 10.625 5.54147 10.1352 6.24281 9.37891C6.94416 10.1352 7.9675 10.625 9.11877 10.625C10.27 10.625 11.2934 10.1352 11.9947 9.37891C12.6961 10.1352 13.7194 10.625 14.8707 10.625C16.0264 10.625 17.0453 10.1352 17.7466 9.37891C18.4524 10.1352 19.4713 10.625 20.6226 10.625C20.8034 10.625 20.9799 10.6121 21.1563 10.5906C23.6044 10.2727 24.7645 7.47539 23.4544 5.46016H23.45ZM21.3372 11.9527H21.3328C21.099 11.9828 20.8608 12 20.6182 12C20.0712 12 19.5463 11.9184 19.0567 11.7723V17.5H4.94158V11.768C4.44755 11.9184 3.91823 12 3.37127 12C3.12866 12 2.88606 11.9828 2.65228 11.9527H2.64787C2.46702 11.927 2.29058 11.8969 2.11855 11.8539V17.5V20.25C2.11855 21.7668 3.3845 23 4.94158 23H19.0567C20.6138 23 21.8797 21.7668 21.8797 20.25V17.5V11.8539C21.7033 11.8969 21.5268 11.9312 21.3372 11.9527Z" fill="#FB6E3B"/>
</svg>
