<svg width="53" height="48" viewBox="0 0 53 48" fill="none" xmlns="http://www.w3.org/2000/svg">
<path d="M23.4183 10.2378L14.431 14.1009C13.409 14.5402 12.6022 15.3642 12.1909 16.3957L6.15849 31.524C5.30161 33.6729 6.34815 36.1076 8.49706 36.9645L19.9722 41.5403C22.1212 42.3971 24.5558 41.3506 25.4127 39.2017L31.4452 24.0734C31.8565 23.0419 31.8381 21.8889 31.3988 20.8669L27.5382 11.8856C26.8594 10.2899 25.0114 9.553 23.4183 10.2378ZM24.3887 17.7977C24.608 18.3078 24.6157 18.8843 24.41 19.4001C24.2043 19.9159 23.8021 20.329 23.2919 20.5483C22.7817 20.7676 22.2053 20.7752 21.6895 20.5695C21.1736 20.3638 20.7606 19.9616 20.5413 19.4514C20.322 18.9412 20.3144 18.3648 20.52 17.849C20.7257 17.3331 21.1279 16.9201 21.6381 16.7008C22.1483 16.4815 22.7247 16.4739 23.2406 16.6796C23.7564 16.8853 24.1694 17.2875 24.3887 17.7977Z" fill="#FDBC44"/>
<path d="M15.614 16.425L23.062 13.2235C24.0963 12.7789 25.2952 13.257 25.7399 14.2913L28.9419 21.7407C29.1561 22.239 29.1629 22.8021 28.9607 23.3055L23.1798 37.6984C22.7596 38.7446 21.57 39.251 20.5246 38.8288L9.98309 34.5706C8.94525 34.1514 8.43956 32.9738 8.85022 31.9325L14.5227 17.5499C14.722 17.0445 15.1148 16.6395 15.614 16.425Z" stroke="white" stroke-width="2.44626"/>
<path d="M17.5078 11.7967L13.0915 20.5255C12.5893 21.5181 12.4989 22.6677 12.8451 23.7228L17.9219 39.1981C18.6431 41.3963 21.0077 42.5927 23.2059 41.8715L34.9442 38.0206C37.1424 37.2995 38.3388 34.9348 37.6177 32.7367L32.5408 17.2614C32.1947 16.2063 31.4409 15.3336 30.4483 14.8314L21.7254 10.418C20.1811 9.62931 18.2907 10.2495 17.5078 11.7967ZM23.1018 16.9737C23.5973 17.2244 23.973 17.6617 24.1461 18.1894C24.3192 18.717 24.2756 19.2918 24.0249 19.7874C23.7742 20.2829 23.3369 20.6585 22.8092 20.8316C22.2815 21.0047 21.7067 20.9611 21.2112 20.7104C20.7157 20.4597 20.34 20.0224 20.1669 19.4948C19.9938 18.9671 20.0374 18.3923 20.2881 17.8967C20.5389 17.4012 20.9761 17.0256 21.5038 16.8525C22.0315 16.6794 22.6063 16.723 23.1018 16.9737Z" fill="#5CB4D0"/>
<path d="M15.4898 21.5493L19.1497 14.3156C19.658 13.311 20.8845 12.9086 21.889 13.4169L29.1241 17.0775C29.6081 17.3224 29.9745 17.7501 30.1423 18.2659L34.9403 33.0156C35.2891 34.0877 34.7014 35.2394 33.6286 35.586L22.8102 39.0816C21.7451 39.4257 20.6018 38.8467 20.2489 37.7845L15.3742 23.1123C15.2029 22.5967 15.2445 22.0341 15.4898 21.5493Z" stroke="white" stroke-width="2.44626"/>
<circle cx="22.5" cy="18.5" r="4.5" fill="white"/>
<path d="M13.8557 19.4727L19.6473 27.3565C20.3059 28.2529 21.2906 28.8529 22.3883 29.0209L38.4877 31.4838C40.7746 31.8336 42.9103 30.2647 43.2602 27.9778L45.1284 15.7661C45.4782 13.4792 43.9092 11.3435 41.6224 10.9936L25.523 8.53072C24.4253 8.36279 23.3062 8.64093 22.4097 9.29952L14.5312 15.0873C13.1299 16.1086 12.829 18.0753 13.8557 19.4727ZM21.0015 16.8214C21.4491 16.4926 22.0089 16.355 22.5579 16.439C23.1068 16.523 23.5999 16.8216 23.9287 17.2692C24.2575 17.7167 24.395 18.2765 24.311 18.8255C24.2271 19.3744 23.9284 19.8675 23.4809 20.1963C23.0333 20.5251 22.4735 20.6626 21.9246 20.5787C21.3756 20.4947 20.8825 20.1961 20.5537 19.7485C20.2249 19.301 20.0874 18.7411 20.1714 18.1922C20.2554 17.6432 20.554 17.1501 21.0015 16.8214Z" fill="#F75874"/>
<path d="M21.6442 25.6797L16.8446 19.1463C16.178 18.239 16.3732 16.9631 17.2806 16.2965L23.8152 11.496C24.2523 11.1748 24.7994 11.0412 25.3354 11.1245L40.6616 13.5084C41.7756 13.6817 42.5375 14.7263 42.362 15.84L40.5925 27.0705C40.4183 28.1762 39.3852 28.9346 38.2781 28.7695L22.9864 26.489C22.4491 26.4089 21.9659 26.1175 21.6442 25.6797Z" stroke="white" stroke-width="2.44626"/>
</svg>
