<svg width="24" height="24" viewBox="0 0 24 24" fill="none" xmlns="http://www.w3.org/2000/svg">
<path d="M10.5542 2.46242C10.8083 1.97076 10.6167 1.36659 10.1292 1.11243C9.64167 0.858258 9.03333 1.04993 8.77917 1.53742L4.9 8.99992H1.33333C0.595833 8.99992 0 9.59576 0 10.3333C0 11.0708 0.595833 11.6666 1.33333 11.6666L3.49583 20.3124C3.79167 21.4999 4.85833 22.3333 6.08333 22.3333H17.9167C19.1417 22.3333 20.2083 21.4999 20.5042 20.3124L22.6667 11.6666C23.4042 11.6666 24 11.0708 24 10.3333C24 9.59576 23.4042 8.99992 22.6667 8.99992H19.1L15.2208 1.53742C14.9667 1.04993 14.3625 0.858258 13.8708 1.11243C13.3792 1.36659 13.1917 1.97076 13.4458 2.46242L16.8458 8.99992H7.15417L10.5542 2.46242ZM8 13.6666V17.6666C8 18.0333 7.7 18.3333 7.33333 18.3333C6.96667 18.3333 6.66667 18.0333 6.66667 17.6666V13.6666C6.66667 13.2999 6.96667 12.9999 7.33333 12.9999C7.7 12.9999 8 13.2999 8 13.6666ZM12 12.9999C12.3667 12.9999 12.6667 13.2999 12.6667 13.6666V17.6666C12.6667 18.0333 12.3667 18.3333 12 18.3333C11.6333 18.3333 11.3333 18.0333 11.3333 17.6666V13.6666C11.3333 13.2999 11.6333 12.9999 12 12.9999ZM17.3333 13.6666V17.6666C17.3333 18.0333 17.0333 18.3333 16.6667 18.3333C16.3 18.3333 16 18.0333 16 17.6666V13.6666C16 13.2999 16.3 12.9999 16.6667 12.9999C17.0333 12.9999 17.3333 13.2999 17.3333 13.6666Z" fill="#FB6E3B"/>
</svg>
