<svg width="51" height="44" viewBox="0 0 51 44" fill="none" xmlns="http://www.w3.org/2000/svg">
<path d="M35.625 16.1C35.25 16.2417 35 16.6 35 17C35 17.4 35.25 17.7583 35.625 17.9L40.3333 19.6667L42.1 24.375C42.2417 24.75 42.6 25 43 25C43.4 25 43.7583 24.75 43.9 24.375L45.6667 19.6667L50.375 17.9C50.75 17.7583 51 17.4 51 17C51 16.6 50.75 16.2417 50.375 16.1L45.6667 14.3333L43.9 9.625C43.7583 9.25 43.4 9 43 9C42.6 9 42.2417 9.25 42.1 9.625L40.3333 14.3333L35.625 16.1Z" fill="#FDBC44"/>
<path d="M0.46875 16.325C0.1875 16.4312 0 16.7 0 17C0 17.3 0.1875 17.5688 0.46875 17.675L4 19L5.325 22.5312C5.43125 22.8125 5.7 23 6 23C6.3 23 6.56875 22.8125 6.675 22.5312L8 19L11.5312 17.675C11.8125 17.5688 12 17.3 12 17C12 16.7 11.8125 16.4312 11.5312 16.325L8 15L6.675 11.4688C6.56875 11.1875 6.3 11 6 11C5.7 11 5.43125 11.1875 5.325 11.4688L4 15L0.46875 16.325Z" fill="#FDBC44"/>
<path d="M16.4688 5.325C16.1875 5.43125 16 5.7 16 6C16 6.3 16.1875 6.56875 16.4688 6.675L20 8L21.325 11.5312C21.4312 11.8125 21.7 12 22 12C22.3 12 22.5688 11.8125 22.675 11.5312L24 8L27.5312 6.675C27.8125 6.56875 28 6.3 28 6C28 5.7 27.8125 5.43125 27.5312 5.325L24 4L22.675 0.46875C22.5688 0.1875 22.3 0 22 0C21.7 0 21.4312 0.1875 21.325 0.46875L20 4L16.4688 5.325Z" fill="#FDBC44"/>
<path d="M30.8333 17H19.1667C17.7865 17 16.6615 18.1496 16.7135 19.5418C16.724 19.8213 16.7344 20.1008 16.75 20.375H11.25C10.5573 20.375 10 20.9393 10 21.6406C10 26.5238 11.7448 29.9199 14.0885 32.2244C16.3958 34.4973 19.2083 35.6416 21.2812 36.2217C22.5 36.5645 23.3333 37.5928 23.3333 38.6264C23.3333 39.7285 22.4479 40.625 21.3594 40.625H20C19.0781 40.625 18.3333 41.3791 18.3333 42.3125C18.3333 43.2459 19.0781 44 20 44H30C30.9219 44 31.6667 43.2459 31.6667 42.3125C31.6667 41.3791 30.9219 40.625 30 40.625H28.6406C27.5521 40.625 26.6667 39.7285 26.6667 38.6264C26.6667 37.5928 27.4948 36.5592 28.7188 36.2217C30.7969 35.6416 33.6094 34.4973 35.9167 32.2244C38.2552 29.9199 40 26.5238 40 21.6406C40 20.9393 39.4427 20.375 38.75 20.375H33.25C33.2656 20.1008 33.276 19.8266 33.2865 19.5418C33.3385 18.1496 32.2135 17 30.8333 17ZM12.5469 22.9062H16.9427C17.4167 27.6576 18.4635 30.8322 19.6458 32.9574C18.349 32.3773 17 31.56 15.8333 30.4104C14.1667 28.7703 12.8125 26.4025 12.5521 22.9062H12.5469ZM34.1719 30.4104C33.0052 31.56 31.6562 32.3773 30.3594 32.9574C31.5417 30.8322 32.5885 27.6576 33.0625 22.9062H37.4583C37.1927 26.4025 35.8385 28.7703 34.1771 30.4104H34.1719Z" fill="#FDBC44"/>
<mask id="mask0_3431_15385" style="mask-type:alpha" maskUnits="userSpaceOnUse" x="10" y="17" width="30" height="27">
<path d="M30.8333 17H19.1667C17.7865 17 16.6615 18.1496 16.7135 19.5418C16.724 19.8213 16.7344 20.1008 16.75 20.375H11.25C10.5573 20.375 10 20.9393 10 21.6406C10 26.5238 11.7448 29.9199 14.0885 32.2244C16.3958 34.4973 19.2083 35.6416 21.2812 36.2217C22.5 36.5645 23.3333 37.5928 23.3333 38.6264C23.3333 39.7285 22.4479 40.625 21.3594 40.625H20C19.0781 40.625 18.3333 41.3791 18.3333 42.3125C18.3333 43.2459 19.0781 44 20 44H30C30.9219 44 31.6667 43.2459 31.6667 42.3125C31.6667 41.3791 30.9219 40.625 30 40.625H28.6406C27.5521 40.625 26.6667 39.7285 26.6667 38.6264C26.6667 37.5928 27.4948 36.5592 28.7188 36.2217C30.7969 35.6416 33.6094 34.4973 35.9167 32.2244C38.2552 29.9199 40 26.5238 40 21.6406C40 20.9393 39.4427 20.375 38.75 20.375H33.25C33.2656 20.1008 33.276 19.8266 33.2865 19.5418C33.3385 18.1496 32.2135 17 30.8333 17ZM12.5469 22.9062H16.9427C17.4167 27.6576 18.4635 30.8322 19.6458 32.9574C18.349 32.3773 17 31.56 15.8333 30.4104C14.1667 28.7703 12.8125 26.4025 12.5521 22.9062H12.5469ZM34.1719 30.4104C33.0052 31.56 31.6562 32.3773 30.3594 32.9574C31.5417 30.8322 32.5885 27.6576 33.0625 22.9062H37.4583C37.1927 26.4025 35.8385 28.7703 34.1771 30.4104H34.1719Z" fill="#FDBC44"/>
</mask>
<g mask="url(#mask0_3431_15385)">
<rect x="25" y="15" width="17" height="31" fill="#FCAC62"/>
</g>
</svg>
