<svg width="52" height="50" viewBox="0 0 52 50" fill="none" xmlns="http://www.w3.org/2000/svg">
<path d="M23.45 31.4602L20.9225 27.5629C20.6976 27.2148 20.2962 27 19.8683 27H4.12996C3.70209 27 3.30069 27.2148 3.07573 27.5629L0.543831 31.4602C-0.761818 33.4711 0.393858 36.2684 2.83313 36.5906C3.00957 36.6121 3.19042 36.625 3.36686 36.625C4.51812 36.625 5.54147 36.1352 6.24281 35.3789C6.94416 36.1352 7.9675 36.625 9.11877 36.625C10.27 36.625 11.2934 36.1352 11.9947 35.3789C12.6961 36.1352 13.7194 36.625 14.8707 36.625C16.0264 36.625 17.0453 36.1352 17.7466 35.3789C18.4524 36.1352 19.4713 36.625 20.6226 36.625C20.8034 36.625 20.9799 36.6121 21.1563 36.5906C23.6044 36.2727 24.7645 33.4754 23.4544 31.4602H23.45ZM21.3372 37.9527H21.3328C21.099 37.9828 20.8608 38 20.6182 38C20.0712 38 19.5463 37.9184 19.0567 37.7723V43.5H4.94157V37.768C4.44755 37.9184 3.91823 38 3.37127 38C3.12866 38 2.88606 37.9828 2.65228 37.9527H2.64787C2.46702 37.927 2.29058 37.8969 2.11855 37.8539V43.5V46.25C2.11855 47.7668 3.3845 49 4.94157 49H19.0567C20.6138 49 21.8797 47.7668 21.8797 46.25V43.5V37.8539C21.7033 37.8969 21.5268 37.9312 21.3372 37.9527Z" fill="#F75874"/>
<path d="M51.45 31.4602L48.9225 27.5629C48.6976 27.2148 48.2962 27 47.8683 27H32.13C31.7021 27 31.3007 27.2148 31.0757 27.5629L28.5438 31.4602C27.2382 33.4711 28.3939 36.2684 30.8331 36.5906C31.0096 36.6121 31.1904 36.625 31.3669 36.625C32.5181 36.625 33.5415 36.1352 34.2428 35.3789C34.9442 36.1352 35.9675 36.625 37.1188 36.625C38.27 36.625 39.2934 36.1352 39.9947 35.3789C40.6961 36.1352 41.7194 36.625 42.8707 36.625C44.0264 36.625 45.0453 36.1352 45.7466 35.3789C46.4524 36.1352 47.4713 36.625 48.6226 36.625C48.8034 36.625 48.9799 36.6121 49.1563 36.5906C51.6044 36.2727 52.7645 33.4754 51.4544 31.4602H51.45ZM49.3372 37.9527H49.3328C49.099 37.9828 48.8608 38 48.6182 38C48.0712 38 47.5463 37.9184 47.0567 37.7723V43.5H32.9416V37.768C32.4475 37.9184 31.9182 38 31.3713 38C31.1287 38 30.8861 37.9828 30.6523 37.9527H30.6479C30.467 37.927 30.2906 37.8969 30.1185 37.8539V43.5V46.25C30.1185 47.7668 31.3845 49 32.9416 49H47.0567C48.6138 49 49.8797 47.7668 49.8797 46.25V43.5V37.8539C49.7033 37.8969 49.5268 37.9312 49.3372 37.9527Z" fill="#5CB4D0"/>
<path d="M37.45 5.46016L34.9225 1.56289C34.6976 1.21484 34.2962 1 33.8683 1H18.13C17.7021 1 17.3007 1.21484 17.0757 1.56289L14.5438 5.46016C13.2382 7.47109 14.3939 10.2684 16.8331 10.5906C17.0096 10.6121 17.1904 10.625 17.3669 10.625C18.5181 10.625 19.5415 10.1352 20.2428 9.37891C20.9442 10.1352 21.9675 10.625 23.1188 10.625C24.27 10.625 25.2934 10.1352 25.9947 9.37891C26.6961 10.1352 27.7194 10.625 28.8707 10.625C30.0264 10.625 31.0453 10.1352 31.7466 9.37891C32.4524 10.1352 33.4713 10.625 34.6226 10.625C34.8034 10.625 34.9799 10.6121 35.1563 10.5906C37.6044 10.2727 38.7645 7.47539 37.4544 5.46016H37.45ZM35.3372 11.9527H35.3328C35.099 11.9828 34.8608 12 34.6182 12C34.0712 12 33.5463 11.9184 33.0567 11.7723V17.5H18.9416V11.768C18.4475 11.9184 17.9182 12 17.3713 12C17.1287 12 16.8861 11.9828 16.6523 11.9527H16.6479C16.467 11.927 16.2906 11.8969 16.1185 11.8539V17.5V20.25C16.1185 21.7668 17.3845 23 18.9416 23H33.0567C34.6138 23 35.8797 21.7668 35.8797 20.25V17.5V11.8539C35.7033 11.8969 35.5268 11.9312 35.3372 11.9527Z" fill="#FDBC44"/>
</svg>
