<svg width="154" height="47" viewBox="0 0 154 47" fill="none" xmlns="http://www.w3.org/2000/svg">
<path d="M2 17.5L40 14.5V20.5L2 17.5Z" fill="black"/>
<path d="M1 23.5L39 20.5V26.5L1 23.5Z" fill="black"/>
<path d="M0 29.5L38 26.5V32.5L0 29.5Z" fill="black"/>
<mask id="mask0_3122_30750" style="mask-type:alpha" maskUnits="userSpaceOnUse" x="47" y="9" width="29" height="29">
<path d="M67.9721 35.2236C65.512 36.7412 62.6733 37.5 59.4562 37.5C55.5578 37.5 52.5488 36.5135 50.4293 34.5406C48.3098 32.5298 47.25 29.855 47.25 26.5163C47.25 23.4431 47.9124 20.6165 49.2371 18.0366C50.5618 15.4187 52.4542 13.3509 54.9143 11.8333C57.4124 10.2778 60.2699 9.5 63.4871 9.5C67.3855 9.5 70.3944 10.5054 72.5139 12.5163C74.6713 14.4892 75.75 17.145 75.75 20.4837C75.75 23.5569 75.0687 26.4024 73.7062 29.0203C72.3815 31.6003 70.4701 33.668 67.9721 35.2236Z" fill="#FDBC44"/>
</mask>
<g mask="url(#mask0_3122_30750)">
<path d="M64 29.5H56L44 41.5H54L64 29.5Z" fill="black"/>
</g>
<mask id="mask1_3122_30750" style="mask-type:alpha" maskUnits="userSpaceOnUse" x="46" y="7" width="32" height="21">
<rect x="46" y="7.5" width="32" height="20" fill="#D9D9D9"/>
</mask>
<g mask="url(#mask1_3122_30750)">
<path d="M67.9721 35.2236C65.512 36.7412 62.6733 37.5 59.4562 37.5C55.5578 37.5 52.5488 36.5135 50.4293 34.5406C48.3098 32.5298 47.25 29.855 47.25 26.5163C47.25 23.4431 47.9124 20.6165 49.2371 18.0366C50.5618 15.4187 52.4542 13.3509 54.9143 11.8333C57.4124 10.2778 60.2699 9.5 63.4871 9.5C67.3855 9.5 70.3944 10.5054 72.5139 12.5163C74.6713 14.4892 75.75 17.145 75.75 20.4837C75.75 23.5569 75.0687 26.4024 73.7062 29.0203C72.3815 31.6003 70.4701 33.668 67.9721 35.2236Z" fill="black"/>
</g>
<rect x="45.25" y="25.5" width="31.5" height="2" rx="1" fill="black"/>
<path d="M58.4996 46.9001C53.9929 46.9001 50.0929 46.0984 46.7996 44.4951C43.5496 42.8484 41.0579 40.5734 39.3246 37.6701C37.5913 34.7234 36.7246 31.3218 36.7246 27.4651C36.7246 22.3518 37.8729 17.7151 40.1696 13.5551C42.5096 9.3951 45.8029 6.12343 50.0496 3.7401C54.2963 1.31343 59.1496 0.100098 64.6096 0.100098C69.1163 0.100098 72.9946 0.923431 76.2446 2.5701C79.5379 4.17343 82.0513 6.44843 83.7846 9.3951C85.5179 12.2984 86.3846 15.6784 86.3846 19.5351C86.3846 24.6484 85.2146 29.2851 82.8746 33.4451C80.5779 37.6051 77.3063 40.8984 73.0596 43.3251C68.8129 45.7084 63.9596 46.9001 58.4996 46.9001ZM59.2146 39.4901C62.8979 39.4901 66.1479 38.6234 68.9646 36.8901C71.8246 35.1134 74.0129 32.7518 75.5296 29.8051C77.0896 26.8151 77.8696 23.5651 77.8696 20.0551C77.8696 16.2418 76.6346 13.2084 74.1646 10.9551C71.7379 8.65843 68.2929 7.5101 63.8296 7.5101C60.1463 7.5101 56.8746 8.39843 54.0146 10.1751C51.1979 11.9084 49.0313 14.2701 47.5146 17.2601C45.9979 20.2068 45.2396 23.4351 45.2396 26.9451C45.2396 30.7584 46.4529 33.8134 48.8796 36.1101C51.3063 38.3634 54.7513 39.4901 59.2146 39.4901Z" fill="black"/>
<path d="M103.062 13.1125C104.462 13.1125 105.812 13.4875 107.112 14.2375C108.412 14.9875 109.462 16.0875 110.262 17.5375C111.087 18.9625 111.5 20.65 111.5 22.6C111.5 24.8 111 26.8 110 28.6C109.025 30.4 107.7 31.8125 106.025 32.8375C104.35 33.8625 102.537 34.375 100.587 34.375C97.8371 34.375 95.8871 33.525 94.7371 31.825L92.8246 41.275H84.3496L89.8996 13.4875H97.8871L97.5121 15.3625C99.0621 13.8625 100.912 13.1125 103.062 13.1125ZM99.1996 27.7C100.3 27.7 101.187 27.275 101.862 26.425C102.562 25.575 102.912 24.4375 102.912 23.0125C102.912 22.0375 102.637 21.2625 102.087 20.6875C101.562 20.0875 100.825 19.7875 99.8746 19.7875C98.7746 19.7875 97.8746 20.2125 97.1746 21.0625C96.4996 21.9125 96.1621 23.05 96.1621 24.475C96.1621 25.45 96.4246 26.2375 96.9496 26.8375C97.4996 27.4125 98.2496 27.7 99.1996 27.7Z" fill="black"/>
<path d="M136.144 22.15C136.144 23.275 135.994 24.4625 135.694 25.7125H121.332C121.507 26.5625 121.919 27.175 122.569 27.55C123.219 27.925 124.119 28.1125 125.269 28.1125C126.969 28.1125 128.457 27.6375 129.732 26.6875L133.257 31.825C130.757 33.525 127.769 34.375 124.294 34.375C122.069 34.375 120.094 33.9875 118.369 33.2125C116.669 32.4375 115.344 31.3375 114.394 29.9125C113.469 28.4875 113.007 26.8125 113.007 24.8875C113.007 22.6375 113.532 20.625 114.582 18.85C115.657 17.05 117.157 15.65 119.082 14.65C121.007 13.625 123.219 13.1125 125.719 13.1125C127.869 13.1125 129.732 13.5 131.307 14.275C132.882 15.025 134.082 16.0875 134.907 17.4625C135.732 18.8125 136.144 20.375 136.144 22.15ZM125.344 18.8875C124.419 18.8875 123.644 19.1375 123.019 19.6375C122.419 20.1125 121.969 20.775 121.669 21.625H128.382C128.382 20.775 128.107 20.1125 127.557 19.6375C127.007 19.1375 126.269 18.8875 125.344 18.8875Z" fill="black"/>
<path d="M147.411 25.9375C147.361 26.2375 147.336 26.4375 147.336 26.5375C147.336 27.4875 147.861 27.9625 148.911 27.9625C149.461 27.9625 150.086 27.8 150.786 27.475L151.761 33.175C150.311 33.975 148.461 34.375 146.211 34.375C143.886 34.375 142.048 33.825 140.698 32.725C139.373 31.6 138.711 30.025 138.711 28C138.711 27.35 138.786 26.675 138.936 25.975L139.986 20.8H137.136L138.373 14.6125H141.186L142.348 8.875H150.823L149.661 14.6125H153.861L152.623 20.8H148.423L147.411 25.9375Z" fill="black"/>
</svg>
