<svg width="315" height="103" viewBox="0 0 315 103" fill="none" xmlns="http://www.w3.org/2000/svg">
<path d="M4.33594 38.2211L81.8975 31.73V44.7123L4.33594 38.2211Z" fill="white"/>
<path d="M2.29468 51.2036L79.8562 44.7124V57.6947L2.29468 51.2036Z" fill="white"/>
<path d="M0.253662 64.186L77.8152 57.6948V70.6772L0.253662 64.186Z" fill="white"/>
<mask id="mask0_3429_1984" style="mask-type:alpha" maskUnits="userSpaceOnUse" x="96" y="20" width="59" height="62">
<path d="M138.991 76.5698C133.97 79.8535 128.176 81.4953 121.609 81.4953C113.652 81.4953 107.511 79.3609 103.185 75.0921C98.8584 70.7412 96.6953 64.9537 96.6953 57.7296C96.6953 51.0801 98.0472 44.9642 100.751 39.3819C103.455 33.7175 107.318 29.2435 112.339 25.9598C117.438 22.594 123.27 20.9111 129.837 20.9111C137.794 20.9111 143.935 23.0866 148.261 27.4375C152.665 31.7063 154.866 37.4528 154.866 44.6769C154.866 51.3264 153.476 57.4833 150.695 63.1477C147.991 68.73 144.09 73.204 138.991 76.5698Z" fill="#FDBC44"/>
</mask>
<g mask="url(#mask0_3429_1984)">
<path d="M130.884 64.1855H114.555L90.0618 90.1502H110.473L130.884 64.1855Z" fill="white"/>
</g>
<mask id="mask1_3429_1984" style="mask-type:alpha" maskUnits="userSpaceOnUse" x="94" y="16" width="66" height="44">
<rect x="94.1438" y="16.584" width="65.315" height="43.2744" fill="#D9D9D9"/>
</mask>
<g mask="url(#mask1_3429_1984)">
<path d="M138.991 76.5703C133.969 79.854 128.175 81.4958 121.609 81.4958C113.652 81.4958 107.51 79.3614 103.184 75.0926C98.8581 70.7417 96.6951 64.9542 96.6951 57.7301C96.6951 51.0806 98.047 44.9647 100.751 39.3824C103.455 33.718 107.317 29.244 112.339 25.9603C117.437 22.5945 123.27 20.9116 129.836 20.9116C137.793 20.9116 143.935 23.0871 148.261 27.438C152.665 31.7068 154.866 37.4532 154.866 44.6774C154.866 51.3269 153.476 57.4838 150.695 63.1482C147.991 68.7305 144.09 73.2045 138.991 76.5703Z" fill="white"/>
</g>
<rect x="92.613" y="55.5308" width="64.2944" height="4.32745" rx="2.16372" fill="white"/>
<path d="M119.658 101.834C110.459 101.834 102.499 100.1 95.7769 96.6307C89.1434 93.0678 84.0576 88.1453 80.5197 81.8633C76.9818 75.4875 75.2129 68.1273 75.2129 59.7825C75.2129 48.7187 77.5567 38.6862 82.2445 29.6851C87.0206 20.6841 93.7426 13.6051 102.41 8.44821C111.078 3.19758 120.984 0.572266 132.129 0.572266C141.327 0.572266 149.243 2.35373 155.877 5.91666C162.599 9.38582 167.729 14.3083 171.267 20.6841C174.805 26.9661 176.574 34.2794 176.574 42.6242C176.574 53.688 174.186 63.7205 169.409 72.7216C164.722 81.7227 158.044 88.8485 149.376 94.0991C140.708 99.256 130.802 101.834 119.658 101.834ZM121.117 85.8013C128.635 85.8013 135.269 83.926 141.018 80.1756C146.855 76.3314 151.322 71.2214 154.418 64.8456C157.602 58.3761 159.194 51.344 159.194 43.7493C159.194 35.4983 156.673 28.9351 151.631 24.0595C146.678 19.0901 139.647 16.6054 130.537 16.6054C123.019 16.6054 116.341 18.5276 110.503 22.3718C104.754 26.1222 100.332 31.2322 97.2363 37.7017C94.1406 44.0775 92.5928 51.0627 92.5928 58.6574C92.5928 66.9084 95.0693 73.5185 100.022 78.4879C104.975 83.3635 112.007 85.8013 121.117 85.8013Z" fill="white"/>
<path d="M210.614 28.7279C213.472 28.7279 216.227 29.5392 218.881 31.162C221.534 32.7848 223.677 35.1649 225.31 38.3023C226.994 41.3856 227.836 45.0369 227.836 49.2562C227.836 54.0163 226.815 58.3438 224.774 62.2385C222.784 66.1332 220.08 69.1894 216.661 71.4073C213.242 73.6251 209.543 74.734 205.562 74.734C199.949 74.734 195.969 72.8948 193.622 69.2165L189.718 89.6637H172.42L183.748 29.5392H200.051L199.286 33.5962C202.45 30.3506 206.226 28.7279 210.614 28.7279ZM202.73 60.2911C204.976 60.2911 206.787 59.3716 208.165 57.5324C209.594 55.6932 210.308 53.232 210.308 50.1487C210.308 48.0391 209.747 46.3622 208.624 45.118C207.552 43.8198 206.047 43.1707 204.108 43.1707C201.863 43.1707 200.026 44.0903 198.597 45.9294C197.219 47.7686 196.531 50.2298 196.531 53.3131C196.531 55.4228 197.066 57.1267 198.138 58.4249C199.261 59.6691 200.791 60.2911 202.73 60.2911Z" fill="white"/>
<path d="M278.138 48.2825C278.138 50.7167 277.832 53.2861 277.22 55.9907H247.905C248.262 57.8299 249.104 59.1552 250.43 59.9666C251.757 60.778 253.594 61.1837 255.941 61.1837C259.411 61.1837 262.447 60.1559 265.05 58.1004L272.245 69.2165C267.142 72.8948 261.044 74.734 253.951 74.734C249.41 74.734 245.379 73.8955 241.858 72.2187C238.388 70.5418 235.683 68.1617 233.744 65.0784C231.856 61.9951 230.912 58.3708 230.912 54.2057C230.912 49.3373 231.984 44.9828 234.127 41.1422C236.321 37.2475 239.383 34.2183 243.312 32.0546C247.241 29.8368 251.757 28.7279 256.86 28.7279C261.248 28.7279 265.05 29.5663 268.264 31.2432C271.479 32.866 273.928 35.1649 275.612 38.14C277.296 41.0611 278.138 44.4419 278.138 48.2825ZM256.094 41.2233C254.206 41.2233 252.625 41.7643 251.349 42.8461C250.124 43.8739 249.206 45.3074 248.593 47.1465H262.294C262.294 45.3074 261.733 43.8739 260.61 42.8461C259.488 41.7643 257.982 41.2233 256.094 41.2233Z" fill="white"/>
<path d="M301.134 56.4776C301.032 57.1267 300.981 57.5594 300.981 57.7758C300.981 59.8314 302.053 60.8591 304.196 60.8591C305.318 60.8591 306.594 60.5075 308.023 59.8043L310.013 72.1375C307.053 73.8685 303.277 74.734 298.685 74.734C293.939 74.734 290.189 73.5439 287.433 71.1638C284.729 68.7297 283.377 65.3218 283.377 60.9403C283.377 59.5338 283.53 58.0733 283.836 56.5587L285.979 45.3615H280.162L282.688 31.9734H288.428L290.801 19.5591H308.099L305.726 31.9734H314.299L311.773 45.3615H303.201L301.134 56.4776Z" fill="white"/>
</svg>
