<svg width="128" height="79" viewBox="0 0 128 79" fill="none" xmlns="http://www.w3.org/2000/svg">
<mask id="mask0_1788_5391" style="mask-type:luminance" maskUnits="userSpaceOnUse" x="0" y="0" width="128" height="79">
<path fill-rule="evenodd" clip-rule="evenodd" d="M0 78.6665H128V-0.000160217H0V78.6665Z" fill="white"/>
</mask>
<g mask="url(#mask0_1788_5391)">
<mask id="mask1_1788_5391" style="mask-type:luminance" maskUnits="userSpaceOnUse" x="6" y="19" width="122" height="50">
<path d="M6.35645 68.8208L127.667 68.8208L127.666 19.0647L6.35635 19.0646L6.35645 68.8208Z" fill="white"/>
</mask>
<g mask="url(#mask1_1788_5391)">
<path d="M46.6005 28.4961L76.4502 28.4961L76.4502 46.4047L63.9276 46.4047L76.4502 57.8657L65.8123 57.8657L53.5314 46.4047L53.5314 57.8657L46.6006 57.8657L46.6005 39.66L68.4862 39.66L68.4861 35.3021L46.6005 35.3021L46.6005 28.4961Z" fill="black"/>
<path d="M79.5498 57.8657L86.8449 57.8657L86.8449 28.4366L79.5497 28.4366L79.5498 57.8657Z" fill="black"/>
<path d="M21.1294 50.7622L21.1293 28.4961L15.4148 28.4961C14.3814 28.4961 13.591 29.2727 13.591 30.2266C13.591 35.4815 13.5303 50.9414 13.5303 56.0749C13.5303 57.03 14.3207 57.8657 15.2934 57.8657C19.2448 57.8657 30.6126 57.8657 32.2534 57.8657L32.2534 50.7622L21.1294 50.7622Z" fill="black"/>
<path d="M36.0225 65.208C36.692 65.208 41.7982 65.208 43.5009 65.208C43.5009 65.208 43.5009 50.7024 43.5009 50.4637C41.0687 50.4637 38.5167 50.4637 36.0224 50.4637C36.0224 55.3585 36.0225 60.2533 36.0225 65.208Z" fill="black"/>
<path d="M24.7763 28.4958C24.7763 28.6161 24.7763 35.8378 24.7763 35.8378C28.12 35.8378 32.3748 35.8378 36.0221 35.8378C36.0221 40.9132 36.0221 46.8223 36.0221 46.8223C37.7248 46.8223 42.831 46.8223 43.5005 46.8223L43.5005 30.2875C43.5005 29.3315 42.709 28.5549 41.7378 28.4958C38.0906 28.4958 29.457 28.4958 24.7763 28.4958Z" fill="black"/>
<path d="M24.7764 39.4191C24.7764 41.8671 24.7764 44.3151 24.7764 46.8813C25.3843 46.8813 26.053 46.8813 26.661 46.8813C28.3639 46.8813 30.4902 46.8813 32.193 46.8814C32.193 46.8814 32.193 39.5394 32.193 39.4191C29.7608 39.4191 27.2689 39.4191 24.7764 39.4191ZM30.0046 44.6127C29.2752 44.6127 28.4238 44.6127 27.7543 44.6127C27.5121 44.6127 27.2689 44.6127 26.9649 44.6127C26.9649 43.5976 26.9649 42.6437 26.9649 41.6286C27.9981 41.6286 28.9714 41.6286 30.0046 41.6286C30.0046 41.6877 30.0046 44.6127 30.0046 44.6127Z" fill="black"/>
<path d="M122.652 50.4638L122.652 61.4475C122.652 62.4024 121.8 63.1786 120.829 63.1786L109.644 63.1786L109.644 64.9692L122.652 64.9692L122.714 64.9692C123.625 64.9692 124.414 64.1933 124.414 63.2381L124.414 63.1786L124.414 50.4638L122.652 50.4638Z" fill="black"/>
<path d="M10.4908 35.7788L10.4908 24.7943C10.4908 23.8404 11.2203 23.1229 12.1929 23.1229L23.3787 23.1229C23.4395 23.1229 23.4395 23.0638 23.4395 23.0638L23.4395 21.3924C23.4395 21.3924 23.4395 21.3333 23.3787 21.3333L10.4908 21.3333C9.45738 21.3333 8.66696 22.1099 8.66697 23.1229L8.66699 35.7788C8.66699 35.8379 8.72774 35.8379 8.72774 35.8379L10.4301 35.8379C10.4301 35.8379 10.4908 35.8379 10.4908 35.7788Z" fill="black"/>
<path d="M119.49 35.7788L119.49 28.496L90.0058 28.4959L90.0058 39.4192L90.0058 46.7633L109.643 46.7633L109.643 50.4039L90.0058 50.4039L90.0059 57.7461L119.49 57.7461L119.49 39.4804L99.8545 39.4804L99.8544 35.7788L119.49 35.7788Z" fill="black"/>
</g>
</g>
</svg>
