<svg width="516" height="697" viewBox="0 0 516 697" fill="none" xmlns="http://www.w3.org/2000/svg">
<ellipse cx="268" cy="665" rx="199" ry="32" fill="#F2F2F4"/>
<path d="M107.809 434.779C117.486 461.088 132.675 480.418 156.532 496.525C180.39 512.633 248.765 473.249 227.77 465.652C204.584 457.263 182.474 439.813 170.645 416.994C155.86 388.47 152.164 340.483 122.258 347.194C92.3514 353.906 95.7117 401.893 107.809 434.779Z" fill="#FB6E3B"/>
<mask id="mask0_3430_4929" style="mask-type:alpha" maskUnits="userSpaceOnUse" x="99" y="346" width="133" height="155">
<path d="M107.809 434.779C117.486 461.088 132.675 480.418 156.532 496.525C180.39 512.633 248.765 473.249 227.77 465.652C204.584 457.263 182.474 439.813 170.645 416.994C155.86 388.47 152.164 340.483 122.258 347.194C92.3514 353.906 95.7117 401.893 107.809 434.779Z" fill="#FB6E3B"/>
</mask>
<g mask="url(#mask0_3430_4929)">
<path d="M128.642 443.84C104.817 407.677 93.3137 354.661 101.591 327.998L62.865 359.999L65.2887 435.893L135.289 519.7L188.698 524.646L197.218 487.719C184.595 484.481 152.466 480.002 128.642 443.84Z" fill="#FA551A"/>
</g>
<path d="M163.588 615.319C164.596 594.848 138.722 578.405 144.434 537.465C152.48 479.804 253.288 566.957 252.635 600.889C252.299 618.339 244.234 654.245 234.153 661.964C224.072 669.682 207.943 672.702 187.782 673.709C167.62 674.715 140.066 670.353 138.722 650.89C137.378 631.426 162.58 635.789 163.588 615.319Z" fill="#FB6E3B"/>
<mask id="mask1_3430_4929" style="mask-type:alpha" maskUnits="userSpaceOnUse" x="138" y="518" width="115" height="156">
<path d="M163.588 615.319C164.596 594.848 138.722 578.405 144.434 537.465C152.48 479.804 253.288 566.957 252.635 600.889C252.299 618.339 244.234 654.245 234.153 661.964C224.072 669.682 207.943 672.702 187.782 673.709C167.62 674.715 140.066 670.353 138.722 650.89C137.378 631.426 162.58 635.789 163.588 615.319Z" fill="#FB6E3B"/>
</mask>
<g mask="url(#mask1_3430_4929)">
<path d="M220.712 654.245C204.314 673.306 183.861 677.848 175.685 677.736L170.98 704.917L247.258 695.186L279.853 630.755L284.557 559.949L233.481 563.304C236.057 585.676 237.11 635.185 220.712 654.245Z" fill="#FA551A"/>
</g>
<path d="M395.447 650.554C394.64 634.178 373.157 630.531 362.516 630.755C356.58 624.155 342.422 604.714 333.282 579.748C321.857 548.539 228.778 561.962 241.211 592.835C251.157 617.533 276.717 648.317 288.254 660.621C296.12 669.011 316.077 672.165 340.002 672.702C369.909 673.373 396.455 671.024 395.447 650.554Z" fill="#FB6E3B"/>
<mask id="mask2_3430_4929" style="mask-type:alpha" maskUnits="userSpaceOnUse" x="240" y="561" width="156" height="112">
<path d="M395.447 650.554C394.64 634.178 373.157 630.531 362.516 630.755C356.58 624.155 342.422 604.714 333.282 579.748C321.857 548.539 228.778 561.962 241.211 592.835C251.157 617.533 276.717 648.317 288.254 660.621C296.12 669.011 316.077 672.165 340.002 672.702C369.909 673.373 396.455 671.024 395.447 650.554Z" fill="#FB6E3B"/>
</mask>
<g mask="url(#mask2_3430_4929)">
<path d="M289.598 632.098C273.738 609.815 253.083 564.871 248.267 546.526L205.592 567.667L261.372 681.763L289.598 712.636L351.763 685.454C335.298 676.058 305.459 654.38 289.598 632.098Z" fill="#FA551A"/>
</g>
<ellipse cx="251.628" cy="523.371" rx="108.536" ry="85.2362" fill="#FB6E3B"/>
<path d="M384.358 497.532L379.317 528.405L329.249 531.425C320.177 527.845 300.553 516.525 294.639 499.881C288.725 483.236 289.71 470.797 290.942 466.659C307.744 466.659 329.249 470.477 351.091 478.739C368.833 485.451 380.773 494.064 384.358 497.532Z" fill="#FB6E3B"/>
<mask id="mask3_3430_4929" style="mask-type:alpha" maskUnits="userSpaceOnUse" x="312" y="470" width="73" height="62">
<path d="M384.359 497.532L379.319 528.405L329.251 531.425C329.251 531.425 315.474 526.727 313.121 507.263C310.618 486.551 317.602 474.489 318.834 470.35C335.635 470.35 339.667 474.418 351.092 478.739C368.835 485.451 380.775 494.064 384.359 497.532Z" fill="#FB6E3B"/>
</mask>
<g mask="url(#mask3_3430_4929)">
<path d="M355.459 516.995C329.652 502.23 294.078 477.957 279.517 467.666L235.834 523.035L353.443 599.882H417.96L446.186 552.902C426.697 547.085 381.266 531.76 355.459 516.995Z" fill="#FA551A"/>
</g>
<path d="M344.37 505.25C360.496 500.419 377.637 497.755 384.358 497.532C397.463 503.572 421.992 520.418 415.272 539.479C408.551 558.539 388.278 560.62 378.981 559.278C382.229 564.982 384.828 577.734 369.236 583.103C349.747 589.815 317.651 588.808 308.416 559.949C297.572 526.063 320.849 512.297 344.37 505.25Z" fill="#FB6E3B"/>
<mask id="mask4_3430_4929" style="mask-type:alpha" maskUnits="userSpaceOnUse" x="305" y="497" width="112" height="90">
<path d="M344.37 505.25C360.496 500.419 377.637 497.755 384.358 497.532C397.463 503.572 421.992 520.418 415.272 539.479C408.551 558.539 388.278 560.62 378.981 559.278C382.229 564.982 384.828 577.734 369.236 583.103C349.747 589.815 317.651 588.808 308.416 559.949C297.572 526.063 320.849 512.297 344.37 505.25Z" fill="#FB6E3B"/>
</mask>
<g mask="url(#mask4_3430_4929)">
<path d="M358.818 570.351C338.321 579.076 299.678 554.244 299.678 554.244L324.88 624.715L374.948 616.996L447.193 554.244L439.801 512.632L402.502 501.894C405.414 509.5 409.021 528.069 400.149 541.492C391.278 554.915 372.931 550.217 364.867 546.19C366.995 551.447 370.946 565.189 358.818 570.351Z" fill="#FA551A"/>
</g>
<path d="M473.741 402.228C457.948 382.43 452.571 369.006 449.547 347.865L412.248 424.376C422.665 430.081 441.818 438.135 469.036 442.498C496.927 446.968 514.064 445.853 515.072 438.471C516.08 431.088 489.534 422.027 473.741 402.228Z" fill="#FB6E3B"/>
<mask id="mask5_3430_4929" style="mask-type:alpha" maskUnits="userSpaceOnUse" x="412" y="347" width="104" height="99">
<path d="M473.741 402.228C457.948 382.43 452.571 369.006 449.547 347.865L412.248 424.376C422.665 430.081 441.818 438.135 469.036 442.498C496.927 446.968 514.064 445.853 515.072 438.471C516.08 431.088 489.534 422.027 473.741 402.228Z" fill="#FB6E3B"/>
</mask>
<g mask="url(#mask5_3430_4929)">
<path d="M455.931 417.329C434.694 404.175 422.216 387.463 418.632 380.751L377.301 417.329L410.903 446.524L507.343 462.296L536.577 448.202C518.544 443.392 477.168 430.484 455.931 417.329Z" fill="#FA551A"/>
</g>
<path d="M449.545 448.202C434.088 436.793 423.671 424.376 418.631 414.309L380.996 457.598C391.077 462.632 413.456 470.484 434.424 475.048C460.634 480.753 479.788 480.753 482.14 473.035C484.492 465.317 465.003 459.612 449.545 448.202Z" fill="#FB6E3B"/>
<mask id="mask6_3430_4929" style="mask-type:alpha" maskUnits="userSpaceOnUse" x="380" y="414" width="103" height="66">
<path d="M449.545 448.202C434.088 436.793 423.671 424.376 418.631 414.309L380.996 457.598C391.077 462.632 413.456 470.484 434.424 475.048C460.634 480.753 479.788 480.753 482.14 473.035C484.492 465.317 465.003 459.612 449.545 448.202Z" fill="#FB6E3B"/>
</mask>
<g mask="url(#mask6_3430_4929)">
<path d="M435.432 460.954C418.496 451.826 400.149 438.135 393.093 432.43L351.762 449.545L390.405 482.095L481.468 494.847L497.261 480.417C483.708 477.733 452.368 470.082 435.432 460.954Z" fill="#FA551A"/>
</g>
<path d="M422.664 483.773C408.215 473.706 400.822 463.975 398.47 451.223L356.131 478.069C361.171 484.445 376.628 495.854 399.814 502.23C428.192 510.034 445.514 511.291 449.21 505.25C452.906 499.21 437.113 493.841 422.664 483.773Z" fill="#FB6E3B"/>
<mask id="mask7_3430_4929" style="mask-type:alpha" maskUnits="userSpaceOnUse" x="356" y="451" width="94" height="59">
<path d="M422.664 483.773C408.215 473.706 400.822 463.975 398.47 451.223L356.131 478.069C361.171 484.445 376.628 495.854 399.814 502.23C428.192 510.034 445.514 511.291 449.21 505.25C452.906 499.21 437.113 493.841 422.664 483.773Z" fill="#FB6E3B"/>
</mask>
<g mask="url(#mask7_3430_4929)">
<path d="M400.15 489.142C383.293 477.708 371.14 464.422 366.883 459.612L335.633 466.323L376.628 510.284L419.975 521.693L442.153 519.68L453.914 510.284C442.825 508.27 417.959 501.223 400.15 489.142Z" fill="#FA551A"/>
</g>
<ellipse cx="305.392" cy="359.61" rx="144.827" ry="134.901" fill="#FB6E3B"/>
<ellipse cx="104.964" cy="113.447" rx="104.964" ry="113.447" transform="matrix(0.922225 0.386653 -0.387535 0.921855 233.188 208.893)" fill="white"/>
<ellipse opacity="0.25" cx="318.497" cy="409.276" rx="18.8174" ry="18.7922" fill="#E05D5D"/>
<ellipse opacity="0.25" cx="197.528" cy="348.872" rx="16.8013" ry="16.7788" fill="#E05D5D"/>
<ellipse cx="10.4131" cy="15.7777" rx="10.4131" ry="15.7777" transform="matrix(0.8565 0.516147 -0.517163 0.855887 329.029 346.874)" fill="#333333"/>
<ellipse cx="329.921" cy="359.61" rx="4.03231" ry="4.0269" fill="white"/>
<ellipse cx="9.55973" cy="14.4847" rx="9.55973" ry="14.4847" transform="matrix(0.8565 0.516147 -0.517163 0.855887 224.605 302.091)" fill="#333333"/>
<ellipse cx="225.753" cy="312.63" rx="3.36026" ry="3.35575" fill="white"/>
<path d="M254.283 363.993C242.553 358.944 231.418 352.516 225.574 344.445C214.691 362.203 201.605 408.552 233.69 422.363C270.261 438.104 296.1 397.027 303.526 377.671C295.354 376.006 272.638 371.893 254.283 363.993Z" fill="#333333"/>
<mask id="mask8_3430_4929" style="mask-type:alpha" maskUnits="userSpaceOnUse" x="213" y="344" width="91" height="82">
<path d="M254.283 363.993C242.553 358.944 231.418 352.516 225.574 344.445C214.691 362.203 201.605 408.552 233.69 422.363C270.261 438.104 296.1 397.027 303.526 377.671C295.354 376.006 272.638 371.893 254.283 363.993Z" fill="#E05D5D"/>
</mask>
<g mask="url(#mask8_3430_4929)">
<ellipse cx="53.7535" cy="53.7027" rx="53.7535" ry="53.7027" transform="matrix(0.923318 0.384037 -0.384916 0.922952 225.428 362.966)" fill="#E05D5D"/>
</g>
<ellipse cx="234.491" cy="520.686" rx="56.4523" ry="56.3767" fill="white"/>
<ellipse cx="234.492" cy="520.686" rx="21.5057" ry="21.4768" fill="#FB6E3B"/>
<ellipse cx="240" cy="88" rx="240" ry="88" fill="#FFEFD5"/>
<path d="M92.1186 73.1761V67.0909H120.789V73.1761H110.102V102H102.806V73.1761H92.1186ZM133.509 102.511C130.816 102.511 128.498 101.966 126.555 100.875C124.623 99.7727 123.134 98.2159 122.089 96.2045C121.043 94.1818 120.521 91.7898 120.521 89.0284C120.521 86.3352 121.043 83.9716 122.089 81.9375C123.134 79.9034 124.606 78.3182 126.504 77.1818C128.413 76.0455 130.651 75.4773 133.219 75.4773C134.947 75.4773 136.555 75.7557 138.043 76.3125C139.543 76.858 140.85 77.6818 141.964 78.7841C143.089 79.8864 143.964 81.2727 144.589 82.9432C145.214 84.6023 145.526 86.5455 145.526 88.7727V90.767H123.418V86.267H138.691C138.691 85.2216 138.464 84.2955 138.009 83.4886C137.555 82.6818 136.924 82.0511 136.117 81.5966C135.322 81.1307 134.396 80.8977 133.339 80.8977C132.237 80.8977 131.259 81.1534 130.407 81.6648C129.566 82.1648 128.907 82.8409 128.43 83.6932C127.952 84.5341 127.708 85.4716 127.697 86.5057V90.7841C127.697 92.0795 127.935 93.1989 128.413 94.142C128.901 95.0852 129.589 95.8125 130.475 96.3239C131.362 96.8352 132.413 97.0909 133.629 97.0909C134.435 97.0909 135.174 96.9773 135.844 96.75C136.515 96.5227 137.089 96.1818 137.566 95.7273C138.043 95.2727 138.407 94.7159 138.657 94.0568L145.373 94.5C145.032 96.1136 144.333 97.5227 143.276 98.7273C142.231 99.9205 140.879 100.852 139.219 101.523C137.572 102.182 135.668 102.511 133.509 102.511ZM150.265 102V75.8182H157.305V80.3864H157.577C158.055 78.7614 158.856 77.5341 159.981 76.7045C161.106 75.8636 162.401 75.4432 163.867 75.4432C164.231 75.4432 164.623 75.4659 165.043 75.5114C165.464 75.5568 165.833 75.6193 166.151 75.6989V82.142C165.81 82.0398 165.339 81.9489 164.737 81.8693C164.134 81.7898 163.583 81.75 163.083 81.75C162.015 81.75 161.06 81.983 160.219 82.4489C159.39 82.9034 158.731 83.5398 158.242 84.358C157.765 85.1761 157.526 86.1193 157.526 87.1875V102H150.265ZM169.906 102V75.8182H177.167V102H169.906ZM173.553 72.4432C172.474 72.4432 171.548 72.0852 170.775 71.3693C170.013 70.642 169.633 69.7727 169.633 68.7614C169.633 67.7614 170.013 66.9034 170.775 66.1875C171.548 65.4602 172.474 65.0966 173.553 65.0966C174.633 65.0966 175.553 65.4602 176.315 66.1875C177.087 66.9034 177.474 67.7614 177.474 68.7614C177.474 69.7727 177.087 70.642 176.315 71.3693C175.553 72.0852 174.633 72.4432 173.553 72.4432ZM182.984 102V75.8182H189.904V80.4375H190.211C190.756 78.9034 191.665 77.6932 192.938 76.8068C194.211 75.9205 195.734 75.4773 197.506 75.4773C199.302 75.4773 200.83 75.9261 202.092 76.8239C203.353 77.7102 204.194 78.9148 204.614 80.4375H204.887C205.421 78.9375 206.387 77.7386 207.785 76.8409C209.194 75.9318 210.859 75.4773 212.779 75.4773C215.222 75.4773 217.205 76.2557 218.728 77.8125C220.262 79.358 221.029 81.5511 221.029 84.392V102H213.785V85.8239C213.785 84.3693 213.398 83.2784 212.626 82.5511C211.853 81.8239 210.887 81.4602 209.728 81.4602C208.41 81.4602 207.381 81.8807 206.643 82.7216C205.904 83.5511 205.535 84.6477 205.535 86.0114V102H198.495V85.6705C198.495 84.3864 198.126 83.3636 197.387 82.6023C196.66 81.8409 195.7 81.4602 194.506 81.4602C193.7 81.4602 192.972 81.6648 192.325 82.0739C191.688 82.4716 191.183 83.0341 190.808 83.7614C190.433 84.4773 190.245 85.3182 190.245 86.2841V102H182.984ZM234.231 102.494C232.56 102.494 231.072 102.205 229.765 101.625C228.458 101.034 227.424 100.165 226.663 99.017C225.913 97.858 225.538 96.4148 225.538 94.6875C225.538 93.233 225.805 92.0114 226.339 91.0227C226.873 90.0341 227.6 89.2386 228.521 88.6364C229.441 88.0341 230.487 87.5795 231.657 87.2727C232.839 86.9659 234.077 86.75 235.373 86.625C236.896 86.4659 238.123 86.3182 239.055 86.1818C239.987 86.0341 240.663 85.8182 241.083 85.5341C241.504 85.25 241.714 84.8295 241.714 84.2727V84.1705C241.714 83.0909 241.373 82.2557 240.691 81.6648C240.021 81.0739 239.066 80.7784 237.827 80.7784C236.521 80.7784 235.481 81.0682 234.708 81.6477C233.935 82.2159 233.424 82.9318 233.174 83.7955L226.458 83.25C226.799 81.6591 227.469 80.2841 228.469 79.125C229.469 77.9545 230.759 77.0568 232.339 76.4318C233.93 75.7955 235.771 75.4773 237.862 75.4773C239.316 75.4773 240.708 75.6477 242.038 75.9886C243.379 76.3295 244.566 76.858 245.6 77.5739C246.646 78.2898 247.469 79.2102 248.072 80.3352C248.674 81.4489 248.975 82.7841 248.975 84.3409V102H242.089V98.3693H241.884C241.464 99.1875 240.901 99.9091 240.197 100.534C239.492 101.148 238.646 101.631 237.657 101.983C236.668 102.324 235.526 102.494 234.231 102.494ZM236.31 97.483C237.379 97.483 238.322 97.2727 239.14 96.8523C239.958 96.4205 240.6 95.8409 241.066 95.1136C241.532 94.3864 241.765 93.5625 241.765 92.642V89.8636C241.538 90.0114 241.225 90.1477 240.827 90.2727C240.441 90.3864 240.004 90.4943 239.515 90.5966C239.026 90.6875 238.538 90.7727 238.049 90.8523C237.56 90.9205 237.117 90.983 236.719 91.0398C235.867 91.1648 235.123 91.3636 234.487 91.6364C233.85 91.9091 233.356 92.2784 233.004 92.7443C232.651 93.1989 232.475 93.767 232.475 94.4489C232.475 95.4375 232.833 96.1932 233.549 96.7159C234.276 97.2273 235.197 97.483 236.31 97.483ZM272.298 94.4659L272.315 85.7557H273.371L281.758 75.8182H290.093L278.826 88.9773H277.104L272.298 94.4659ZM265.718 102V67.0909H272.979V102H265.718ZM282.082 102L274.377 90.5966L279.218 85.4659L290.587 102H282.082ZM301.121 102.494C299.451 102.494 297.962 102.205 296.656 101.625C295.349 101.034 294.315 100.165 293.553 99.017C292.803 97.858 292.428 96.4148 292.428 94.6875C292.428 93.233 292.695 92.0114 293.229 91.0227C293.763 90.0341 294.491 89.2386 295.411 88.6364C296.332 88.0341 297.377 87.5795 298.548 87.2727C299.729 86.9659 300.968 86.75 302.263 86.625C303.786 86.4659 305.013 86.3182 305.945 86.1818C306.877 86.0341 307.553 85.8182 307.974 85.5341C308.394 85.25 308.604 84.8295 308.604 84.2727V84.1705C308.604 83.0909 308.263 82.2557 307.582 81.6648C306.911 81.0739 305.957 80.7784 304.718 80.7784C303.411 80.7784 302.371 81.0682 301.599 81.6477C300.826 82.2159 300.315 82.9318 300.065 83.7955L293.349 83.25C293.69 81.6591 294.36 80.2841 295.36 79.125C296.36 77.9545 297.65 77.0568 299.229 76.4318C300.82 75.7955 302.661 75.4773 304.752 75.4773C306.207 75.4773 307.599 75.6477 308.928 75.9886C310.269 76.3295 311.457 76.858 312.491 77.5739C313.536 78.2898 314.36 79.2102 314.962 80.3352C315.565 81.4489 315.866 82.7841 315.866 84.3409V102H308.979V98.3693H308.775C308.354 99.1875 307.792 99.9091 307.087 100.534C306.383 101.148 305.536 101.631 304.548 101.983C303.559 102.324 302.417 102.494 301.121 102.494ZM303.201 97.483C304.269 97.483 305.212 97.2727 306.031 96.8523C306.849 96.4205 307.491 95.8409 307.957 95.1136C308.423 94.3864 308.656 93.5625 308.656 92.642V89.8636C308.428 90.0114 308.116 90.1477 307.718 90.2727C307.332 90.3864 306.894 90.4943 306.406 90.5966C305.917 90.6875 305.428 90.7727 304.94 90.8523C304.451 90.9205 304.008 90.983 303.61 91.0398C302.758 91.1648 302.013 91.3636 301.377 91.6364C300.741 91.9091 300.246 92.2784 299.894 92.7443C299.542 93.1989 299.366 93.767 299.366 94.4489C299.366 95.4375 299.724 96.1932 300.44 96.7159C301.167 97.2273 302.087 97.483 303.201 97.483ZM343.283 83.2841L336.636 83.6932C336.522 83.125 336.278 82.6136 335.903 82.1591C335.528 81.6932 335.033 81.3239 334.42 81.0511C333.817 80.767 333.096 80.625 332.255 80.625C331.13 80.625 330.181 80.8636 329.408 81.3409C328.636 81.8068 328.249 82.4318 328.249 83.2159C328.249 83.8409 328.499 84.3693 328.999 84.8011C329.499 85.233 330.357 85.5795 331.573 85.8409L336.312 86.7955C338.857 87.3182 340.755 88.1591 342.005 89.3182C343.255 90.4773 343.88 92 343.88 93.8864C343.88 95.6023 343.374 97.108 342.363 98.4034C341.363 99.6989 339.988 100.71 338.238 101.438C336.499 102.153 334.494 102.511 332.221 102.511C328.755 102.511 325.994 101.79 323.937 100.347C321.891 98.892 320.692 96.9148 320.34 94.4148L327.482 94.0398C327.698 95.0966 328.221 95.9034 329.05 96.4602C329.88 97.0057 330.942 97.2784 332.238 97.2784C333.511 97.2784 334.533 97.0341 335.306 96.5455C336.09 96.0455 336.488 95.4034 336.499 94.6193C336.488 93.9602 336.21 93.4205 335.664 93C335.119 92.5682 334.278 92.2386 333.141 92.0114L328.607 91.108C326.05 90.5966 324.147 89.7102 322.897 88.4489C321.658 87.1875 321.039 85.5795 321.039 83.625C321.039 81.9432 321.494 80.4943 322.403 79.2784C323.323 78.0625 324.613 77.125 326.272 76.4659C327.942 75.8068 329.897 75.4773 332.136 75.4773C335.442 75.4773 338.045 76.1761 339.942 77.5739C341.852 78.9716 342.965 80.875 343.283 83.2841ZM348.452 102V75.8182H355.714V102H348.452ZM352.1 72.4432C351.021 72.4432 350.094 72.0852 349.322 71.3693C348.56 70.642 348.18 69.7727 348.18 68.7614C348.18 67.7614 348.56 66.9034 349.322 66.1875C350.094 65.4602 351.021 65.0966 352.1 65.0966C353.18 65.0966 354.1 65.4602 354.862 66.1875C355.634 66.9034 356.021 67.7614 356.021 68.7614C356.021 69.7727 355.634 70.642 354.862 71.3693C354.1 72.0852 353.18 72.4432 352.1 72.4432ZM368.792 86.8636V102H361.531V67.0909H368.587V80.4375H368.894C369.485 78.892 370.44 77.6818 371.758 76.8068C373.076 75.9205 374.729 75.4773 376.718 75.4773C378.536 75.4773 380.121 75.875 381.474 76.6705C382.837 77.4545 383.894 78.5852 384.644 80.0625C385.406 81.5284 385.781 83.2841 385.769 85.3295V102H378.508V86.625C378.519 85.0114 378.11 83.7557 377.281 82.858C376.462 81.9602 375.315 81.5114 373.837 81.5114C372.849 81.5114 371.974 81.7216 371.212 82.142C370.462 82.5625 369.871 83.1761 369.44 83.983C369.019 84.7784 368.803 85.7386 368.792 86.8636Z" fill="#333333"/>
<path d="M214.828 174.828C212.309 172.309 214.093 168 217.657 168H244C246.209 168 248 169.791 248 172V198.343C248 201.907 243.691 203.691 241.172 201.172L214.828 174.828Z" fill="#FFEFD5"/>
</svg>
